<svg xmlns="http://www.w3.org/2000/svg" viewBox="0 0 54.36 41.96"><defs></defs><title>Logo</title><g id="MobileLogo" data-name="Layer 2"><g id="Layer_1-2" data-name="Layer 1"><path class="cls-1" d="M50.84,23.05A5.62,5.62,0,0,0,46,26.36h-.35c.26-5.09-1.57-7.69-4.83-7.69s-4.65,3.61-5,4.69h-.17a14.2,14.2,0,0,0-.46-3.06c-.32.38-.65.75-1,1.1a16.22,16.22,0,0,1-2.78,2.17,41.9,41.9,0,0,1,.47,7.1c0,4.56-.87,8.87-1.87,10.48-.22.35-.22.83,1.17.83,1,0,2-.09,2.13-.39a6.09,6.09,0,0,1,.7-.87c2.44-2.56,6-7.26,6.74-8.3l.3.09a33.18,33.18,0,0,1-1.91,8.74c-.26.61.09.65,1.35.65,1,0,1.48,0,1.74-.22a7.81,7.81,0,0,1,1.87-1.3c5.17-2.91,10.3-8.09,10.3-13C54.36,24.7,53,23.05,50.84,23.05ZM41.1,28a3.63,3.63,0,0,1-.56,1.72c-.8,1.36-4.44,6.16-4.92,6.68l-.24-.08c.8-2.36,1-7.28,1-9.76a4.86,4.86,0,0,1,.24-1.32c.52-1.76,1.68-2.8,2.68-2.8C40.46,22.44,41.3,23.76,41.1,28Zm2.36,10-.2-.12a33.92,33.92,0,0,0,1.6-7,5.25,5.25,0,0,1,.56-2.44c.4-.8,1.52-2.08,2.64-2,1,.08,1.28.72,1.32,1.92C49.38,32.24,45.26,36.84,43.46,38Z"/><path class="cls-1" d="M25.93,20.62a7.46,7.46,0,0,0,.13,1.48.53.53,0,0,0,.57.47c.28-.2.54-.4.79-.61a1.48,1.48,0,0,0,0-.17A1.77,1.77,0,0,1,28.8,19.7a1.62,1.62,0,0,1,.65.15,15.12,15.12,0,0,0,2.1-3.39,5.57,5.57,0,0,0-1.05-.1A4.45,4.45,0,0,0,25.93,20.62Z"/><path class="cls-2" d="M29.44,19.85A17.53,17.53,0,0,1,28,21.45c-.18.18-.38.34-.58.51,0,.46-.16.62-.74.62h0a14.57,14.57,0,0,1-8,2.76c-1.12,0-1.8-.52-1.36-2.28L22.36,2.61c.24-1,.56-1.2,1.6-1.2,5.32,0,8.84,3.32,8.88,8.92a15.31,15.31,0,0,1-1.29,6.13c1.89.36,3,1.73,3.62,3.84a14.2,14.2,0,0,0,3.39-9.14A9.62,9.62,0,0,0,35,3.08C31.91.32,25.36,0,20.12,0c-7.4,0-11.44,0-15,1.68A9,9,0,0,0,0,9.88,5.34,5.34,0,0,0,5.56,15.6c2.28,0,3.88-1.24,3.88-2.8,0-1.24-.72-2-1.68-2a2.37,2.37,0,0,0-2.28,1.48A1.37,1.37,0,0,1,4.12,13a2.18,2.18,0,0,1-2.28-2.28c0-3.32,6.8-8.84,12.6-8.84,1.76,0,2.44.32,2.2,1.2L11.72,22.32c-.6,2.4-1.48,3-2.92,3H7.72c-.28,0-.36.12-.4.28l-.2.88c-.08.28,0,.4.28.4.8,0,3.12-.12,5-.12,1.56,0,3.08.12,4.64.12,6.32,0,11-1.23,14.38-3.35C31,21.7,30.44,20.28,29.44,19.85Z"/><path class="cls-1" d="M26.67,22.57c.58,0,.77-.16.74-.62-.25.21-.51.41-.79.61Z"/><path class="cls-2" d="M26.67,22.57c.58,0,.77-.16.74-.62-.25.21-.51.41-.79.61Z"/><path class="cls-1" d="M35.17,20.29c-.59-2.11-1.74-3.48-3.62-3.84a15.12,15.12,0,0,1-2.1,3.39c1,.43,1.59,1.84,1.93,3.71a16.22,16.22,0,0,0,2.78-2.17C34.52,21,34.85,20.67,35.17,20.29Z"/><path class="cls-2" d="M35.17,20.29c-.59-2.11-1.74-3.48-3.62-3.84a15.12,15.12,0,0,1-2.1,3.39c1,.43,1.59,1.84,1.93,3.71a16.22,16.22,0,0,0,2.78-2.17C34.52,21,34.85,20.67,35.17,20.29Z"/></g></g></svg>